<?xml version="1.0" encoding="UTF-8" standalone="no"?>
<!DOCTYPE svg PUBLIC "-//W3C//DTD SVG 1.1//EN"
 "http://www.w3.org/Graphics/SVG/1.1/DTD/svg11.dtd">
<!-- Generated by graphviz version 2.36.0 (20140111.2315)
 -->
<!-- Title: %3 Pages: 1 -->
<svg width="362pt" height="98pt"
 viewBox="0.00 0.00 362.00 98.00" xmlns="http://www.w3.org/2000/svg" xmlns:xlink="http://www.w3.org/1999/xlink">
<g id="graph0" class="graph" transform="scale(1 1) rotate(0) translate(4 94)">
<title>%3</title>
<!-- shops -->
<g id="node1" class="node"><title>shops</title>
<ellipse fill="none" stroke="black" cx="32" cy="-72" rx="30.0121" ry="18"/>
<text text-anchor="middle" x="32" y="-67.8" font-family="Times,serif" font-size="14.00">shops</text>
</g>
<!-- findCheapestStore -->
<g id="node2" class="node"><title>findCheapestStore</title>
<polygon fill="none" stroke="black" points="219.156,-63 100.844,-63 100.844,-27 219.156,-27 219.156,-63"/>
<text text-anchor="middle" x="160" y="-40.8" font-family="Times,serif" font-size="14.00">findCheapestStore</text>
</g>
<!-- shops&#45;&gt;findCheapestStore -->
<g id="edge1" class="edge"><title>shops&#45;&gt;findCheapestStore</title>
<path fill="none" stroke="black" d="M60.6512,-66.0747C69.6917,-64.1375 80.1681,-61.8925 90.8433,-59.605"/>
<polygon fill="black" stroke="black" points="91.6228,-63.0175 100.667,-57.4998 90.156,-56.1729 91.6228,-63.0175"/>
</g>
<!-- storeName -->
<g id="node4" class="node"><title>storeName</title>
<ellipse fill="none" stroke="black" cx="305" cy="-45" rx="48.3255" ry="18"/>
<text text-anchor="middle" x="305" y="-40.8" font-family="Times,serif" font-size="14.00">storeName</text>
</g>
<!-- findCheapestStore&#45;&gt;storeName -->
<g id="edge3" class="edge"><title>findCheapestStore&#45;&gt;storeName</title>
<path fill="none" stroke="black" d="M219.164,-45C228.056,-45 237.234,-45 246.12,-45"/>
<polygon fill="black" stroke="black" points="246.383,-48.5001 256.383,-45 246.383,-41.5001 246.383,-48.5001"/>
</g>
<!-- recipe -->
<g id="node3" class="node"><title>recipe</title>
<ellipse fill="none" stroke="black" cx="32" cy="-18" rx="31.9132" ry="18"/>
<text text-anchor="middle" x="32" y="-13.8" font-family="Times,serif" font-size="14.00">recipe</text>
</g>
<!-- recipe&#45;&gt;findCheapestStore -->
<g id="edge2" class="edge"><title>recipe&#45;&gt;findCheapestStore</title>
<path fill="none" stroke="black" d="M61.9069,-24.1943C70.6613,-26.0703 80.6726,-28.2156 90.8643,-30.3995"/>
<polygon fill="black" stroke="black" points="90.1445,-33.8246 100.656,-32.4977 91.6113,-26.98 90.1445,-33.8246"/>
</g>
</g>
</svg>
