<?xml version="1.0" encoding="UTF-8" standalone="no"?>
<!DOCTYPE svg PUBLIC "-//W3C//DTD SVG 1.1//EN"
 "http://www.w3.org/Graphics/SVG/1.1/DTD/svg11.dtd">
<!-- Generated by graphviz version 2.36.0 (20140111.2315)
 -->
<!-- Title: %3 Pages: 1 -->
<svg width="485pt" height="206pt"
 viewBox="0.00 0.00 485.00 206.00" xmlns="http://www.w3.org/2000/svg" xmlns:xlink="http://www.w3.org/1999/xlink">
<g id="graph0" class="graph" transform="scale(1 1) rotate(0) translate(4 202)">
<title>%3</title>
<g id="clust1" class="cluster"><title>cluster_source</title>
<polygon fill="none" stroke="black" stroke-dasharray="5,2" points="8,-8 8,-190 262,-190 262,-8 8,-8"/>
<text text-anchor="middle" x="135" y="-174.8" font-family="Times,serif" font-size="14.00">Source code in ES6+</text>
</g>
<g id="clust2" class="cluster"><title>cluster_dist</title>
<polygon fill="none" stroke="black" stroke-dasharray="5,2" points="372,-88 372,-162 477,-162 477,-88 372,-88"/>
<text text-anchor="middle" x="424.5" y="-146.8" font-family="Times,serif" font-size="14.00">Distributed ES5</text>
</g>
<!-- entry -->
<g id="node1" class="node"><title>entry</title>
<ellipse fill="none" stroke="black" cx="225" cy="-114" rx="28.0565" ry="18"/>
<text text-anchor="middle" x="225" y="-109.8" font-family="Times,serif" font-size="14.00">entry</text>
</g>
<!-- bundler -->
<g id="node6" class="node"><title>bundler</title>
<polygon fill="none" stroke="black" points="344,-132 290,-132 290,-96 344,-96 344,-132"/>
<text text-anchor="middle" x="317" y="-116.8" font-family="Times,serif" font-size="14.00">build</text>
<text text-anchor="middle" x="317" y="-102.8" font-family="Times,serif" font-size="14.00">step</text>
</g>
<!-- entry&#45;&gt;bundler -->
<g id="edge6" class="edge"><title>entry&#45;&gt;bundler</title>
<path fill="none" stroke="black" d="M253.492,-114C261.815,-114 271.084,-114 279.882,-114"/>
<polygon fill="black" stroke="black" points="279.908,-117.5 289.908,-114 279.908,-110.5 279.908,-117.5"/>
</g>
<!-- file2 -->
<g id="node2" class="node"><title>file2</title>
<ellipse fill="none" stroke="black" cx="133" cy="-92" rx="27" ry="18"/>
<text text-anchor="middle" x="133" y="-87.8" font-family="Times,serif" font-size="14.00">file2</text>
</g>
<!-- file2&#45;&gt;entry -->
<g id="edge2" class="edge"><title>file2&#45;&gt;entry</title>
<path fill="none" stroke="black" stroke-dasharray="1,5" d="M168.521,-100.438C178.376,-102.847 188.941,-105.43 198.179,-107.688"/>
<polygon fill="black" stroke="black" points="169.138,-96.9863 158.593,-98.0116 167.476,-103.786 169.138,-96.9863"/>
</g>
<!-- file3 -->
<g id="node3" class="node"><title>file3</title>
<ellipse fill="none" stroke="black" cx="43" cy="-142" rx="27" ry="18"/>
<text text-anchor="middle" x="43" y="-137.8" font-family="Times,serif" font-size="14.00">file3</text>
</g>
<!-- file3&#45;&gt;entry -->
<g id="edge3" class="edge"><title>file3&#45;&gt;entry</title>
<path fill="none" stroke="black" stroke-dasharray="1,5" d="M79.5564,-136.469C114.173,-131.084 166.004,-123.022 197.255,-118.16"/>
<polygon fill="black" stroke="black" points="78.751,-133.052 69.4078,-138.048 79.827,-139.969 78.751,-133.052"/>
</g>
<!-- file3&#45;&gt;file2 -->
<g id="edge1" class="edge"><title>file3&#45;&gt;file2</title>
<path fill="none" stroke="black" stroke-dasharray="1,5" d="M72.8343,-125.617C85.5789,-118.376 100.258,-110.036 111.806,-103.474"/>
<polygon fill="black" stroke="black" points="70.9341,-122.671 63.9686,-130.654 74.3922,-128.757 70.9341,-122.671"/>
</g>
<!-- file4 -->
<g id="node4" class="node"><title>file4</title>
<ellipse fill="none" stroke="black" cx="43" cy="-88" rx="27" ry="18"/>
<text text-anchor="middle" x="43" y="-83.8" font-family="Times,serif" font-size="14.00">file4</text>
</g>
<!-- file4&#45;&gt;file2 -->
<g id="edge4" class="edge"><title>file4&#45;&gt;file2</title>
<path fill="none" stroke="black" stroke-dasharray="1,5" d="M80.5196,-89.66C89.0438,-90.0474 97.9538,-90.4524 105.919,-90.8145"/>
<polygon fill="black" stroke="black" points="80.5515,-86.1579 70.4029,-89.2001 80.2336,-93.1507 80.5515,-86.1579"/>
</g>
<!-- file5 -->
<g id="node5" class="node"><title>file5</title>
<ellipse fill="none" stroke="black" cx="43" cy="-34" rx="27" ry="18"/>
<text text-anchor="middle" x="43" y="-29.8" font-family="Times,serif" font-size="14.00">file5</text>
</g>
<!-- file5&#45;&gt;file2 -->
<g id="edge5" class="edge"><title>file5&#45;&gt;file2</title>
<path fill="none" stroke="black" stroke-dasharray="1,5" d="M71.5875,-52.1826C85.1432,-61.1171 101.125,-71.6506 113.245,-79.6387"/>
<polygon fill="black" stroke="black" points="73.3704,-49.166 63.0947,-46.5851 69.5182,-55.0107 73.3704,-49.166"/>
</g>
<!-- bundle -->
<g id="node7" class="node"><title>bundle</title>
<ellipse fill="none" stroke="black" cx="424" cy="-114" rx="34.3527" ry="18"/>
<text text-anchor="middle" x="424" y="-109.8" font-family="Times,serif" font-size="14.00">bundle</text>
</g>
<!-- bundler&#45;&gt;bundle -->
<g id="edge7" class="edge"><title>bundler&#45;&gt;bundle</title>
<path fill="none" stroke="black" d="M344.225,-114C354.843,-114 367.392,-114 379.317,-114"/>
<polygon fill="black" stroke="black" points="379.571,-117.5 389.571,-114 379.571,-110.5 379.571,-117.5"/>
</g>
</g>
</svg>
