<?xml version="1.0" encoding="UTF-8" standalone="no"?>
<!DOCTYPE svg PUBLIC "-//W3C//DTD SVG 1.1//EN"
 "http://www.w3.org/Graphics/SVG/1.1/DTD/svg11.dtd">
<!-- Generated by graphviz version 2.36.0 (20140111.2315)
 -->
<!-- Title: %3 Pages: 1 -->
<svg width="262pt" height="98pt"
 viewBox="0.00 0.00 262.00 98.00" xmlns="http://www.w3.org/2000/svg" xmlns:xlink="http://www.w3.org/1999/xlink">
<g id="graph0" class="graph" transform="scale(1 1) rotate(0) translate(4 94)">
<title>%3</title>
<!-- SASS -->
<g id="node1" class="node"><title>SASS</title>
<ellipse fill="none" stroke="black" cx="31" cy="-72" rx="31.4984" ry="18"/>
<text text-anchor="middle" x="31" y="-67.8" font-family="Times,serif" font-size="14.00">SASS</text>
</g>
<!-- compiler -->
<g id="node2" class="node"><title>compiler</title>
<polygon fill="none" stroke="black" points="163.759,-63 98.2408,-63 98.2408,-27 163.759,-27 163.759,-63"/>
<text text-anchor="middle" x="131" y="-40.8" font-family="Times,serif" font-size="14.00">compiler</text>
</g>
<!-- SASS&#45;&gt;compiler -->
<g id="edge1" class="edge"><title>SASS&#45;&gt;compiler</title>
<path fill="none" stroke="black" d="M59.5593,-64.4071C68.467,-61.953 78.5523,-59.1744 88.2501,-56.5025"/>
<polygon fill="black" stroke="black" points="89.4393,-59.8054 98.1505,-53.7749 87.58,-53.0568 89.4393,-59.8054"/>
</g>
<!-- CSS -->
<g id="node4" class="node"><title>CSS</title>
<ellipse fill="none" stroke="black" cx="227" cy="-45" rx="27" ry="18"/>
<text text-anchor="middle" x="227" y="-40.8" font-family="Times,serif" font-size="14.00">CSS</text>
</g>
<!-- compiler&#45;&gt;CSS -->
<g id="edge3" class="edge"><title>compiler&#45;&gt;CSS</title>
<path fill="none" stroke="black" d="M163.824,-45C172.155,-45 181.198,-45 189.741,-45"/>
<polygon fill="black" stroke="black" points="189.831,-48.5001 199.831,-45 189.831,-41.5001 189.831,-48.5001"/>
</g>
<!-- LESS -->
<g id="node3" class="node"><title>LESS</title>
<ellipse fill="none" stroke="black" cx="31" cy="-18" rx="30.9967" ry="18"/>
<text text-anchor="middle" x="31" y="-13.8" font-family="Times,serif" font-size="14.00">LESS</text>
</g>
<!-- LESS&#45;&gt;compiler -->
<g id="edge2" class="edge"><title>LESS&#45;&gt;compiler</title>
<path fill="none" stroke="black" d="M59.0384,-25.4493C68.1315,-27.9546 78.4969,-30.8104 88.4433,-33.5507"/>
<polygon fill="black" stroke="black" points="87.617,-36.9534 98.1875,-36.2353 89.4764,-30.2048 87.617,-36.9534"/>
</g>
</g>
</svg>
