<?xml version="1.0" encoding="UTF-8" standalone="no"?>
<!DOCTYPE svg PUBLIC "-//W3C//DTD SVG 1.1//EN"
 "http://www.w3.org/Graphics/SVG/1.1/DTD/svg11.dtd">
<!-- Generated by graphviz version 2.36.0 (20140111.2315)
 -->
<!-- Title: %3 Pages: 1 -->
<svg width="284pt" height="98pt"
 viewBox="0.00 0.00 284.00 98.00" xmlns="http://www.w3.org/2000/svg" xmlns:xlink="http://www.w3.org/1999/xlink">
<g id="graph0" class="graph" transform="scale(1 1) rotate(0) translate(4 94)">
<title>%3</title>
<!-- list -->
<g id="node1" class="node"><title>list</title>
<ellipse fill="none" stroke="black" cx="36" cy="-72" rx="27" ry="18"/>
<text text-anchor="middle" x="36" y="-67.8" font-family="Times,serif" font-size="14.00">list</text>
</g>
<!-- filter -->
<g id="node2" class="node"><title>filter</title>
<polygon fill="none" stroke="black" points="162,-63 108,-63 108,-27 162,-27 162,-63"/>
<text text-anchor="middle" x="135" y="-40.8" font-family="Times,serif" font-size="14.00">filter</text>
</g>
<!-- list&#45;&gt;filter -->
<g id="edge1" class="edge"><title>list&#45;&gt;filter</title>
<path fill="none" stroke="black" d="M61.4772,-65.1868C72.5266,-62.1112 85.8015,-58.4161 97.9567,-55.0327"/>
<polygon fill="black" stroke="black" points="99.1351,-58.3378 107.83,-52.2844 97.258,-51.5942 99.1351,-58.3378"/>
</g>
<!-- newList -->
<g id="node4" class="node"><title>newList</title>
<ellipse fill="none" stroke="black" cx="237" cy="-45" rx="38.6955" ry="18"/>
<text text-anchor="middle" x="237" y="-40.8" font-family="Times,serif" font-size="14.00">newList</text>
</g>
<!-- filter&#45;&gt;newList -->
<g id="edge3" class="edge"><title>filter&#45;&gt;newList</title>
<path fill="none" stroke="black" d="M162.013,-45C170.002,-45 179.061,-45 188.033,-45"/>
<polygon fill="black" stroke="black" points="188.064,-48.5001 198.064,-45 188.064,-41.5001 188.064,-48.5001"/>
</g>
<!-- iterator -->
<g id="node3" class="node"><title>iterator</title>
<ellipse fill="none" stroke="black" cx="36" cy="-18" rx="35.78" ry="18"/>
<text text-anchor="middle" x="36" y="-13.8" font-family="Times,serif" font-size="14.00">iterator</text>
</g>
<!-- iterator&#45;&gt;filter -->
<g id="edge2" class="edge"><title>iterator&#45;&gt;filter</title>
<path fill="none" stroke="black" d="M67.6914,-26.543C77.3491,-29.2312 88.1008,-32.2239 98.0875,-35.0037"/>
<polygon fill="black" stroke="black" points="97.1781,-38.3836 107.75,-37.6934 99.0552,-31.64 97.1781,-38.3836"/>
</g>
</g>
</svg>
