<?xml version="1.0" encoding="UTF-8" standalone="no"?>
<!DOCTYPE svg PUBLIC "-//W3C//DTD SVG 1.1//EN"
 "http://www.w3.org/Graphics/SVG/1.1/DTD/svg11.dtd">
<!-- Generated by graphviz version 2.36.0 (20140111.2315)
 -->
<!-- Title: %3 Pages: 1 -->
<svg width="288pt" height="98pt"
 viewBox="0.00 0.00 288.00 98.00" xmlns="http://www.w3.org/2000/svg" xmlns:xlink="http://www.w3.org/1999/xlink">
<g id="graph0" class="graph" transform="scale(1 1) rotate(0) translate(4 94)">
<title>%3</title>
<!-- element -->
<g id="node1" class="node"><title>element</title>
<ellipse fill="none" stroke="black" cx="38" cy="-72" rx="38.1937" ry="18"/>
<text text-anchor="middle" x="38" y="-67.8" font-family="Times,serif" font-size="14.00">element</text>
</g>
<!-- iterator -->
<g id="node2" class="node"><title>iterator</title>
<polygon fill="none" stroke="black" points="168.422,-63 111.578,-63 111.578,-27 168.422,-27 168.422,-63"/>
<text text-anchor="middle" x="140" y="-40.8" font-family="Times,serif" font-size="14.00">iterator</text>
</g>
<!-- element&#45;&gt;iterator -->
<g id="edge1" class="edge"><title>element&#45;&gt;iterator</title>
<path fill="none" stroke="black" d="M71.4671,-63.2339C81.2193,-60.6008 91.9903,-57.6926 102.012,-54.9868"/>
<polygon fill="black" stroke="black" points="102.976,-58.3519 111.718,-52.3662 101.151,-51.5939 102.976,-58.3519"/>
</g>
<!-- boolean -->
<g id="node4" class="node"><title>boolean</title>
<ellipse fill="none" stroke="black" cx="242" cy="-45" rx="38.2024" ry="18"/>
<text text-anchor="middle" x="242" y="-40.8" font-family="Times,serif" font-size="14.00">boolean</text>
</g>
<!-- iterator&#45;&gt;boolean -->
<g id="edge3" class="edge"><title>iterator&#45;&gt;boolean</title>
<path fill="none" stroke="black" d="M168.325,-45C176.14,-45 184.891,-45 193.541,-45"/>
<polygon fill="black" stroke="black" points="193.586,-48.5001 203.586,-45 193.586,-41.5001 193.586,-48.5001"/>
</g>
<!-- index -->
<g id="node3" class="node"><title>index</title>
<ellipse fill="none" stroke="black" cx="38" cy="-18" rx="29.5104" ry="18"/>
<text text-anchor="middle" x="38" y="-13.8" font-family="Times,serif" font-size="14.00">index</text>
</g>
<!-- index&#45;&gt;iterator -->
<g id="edge2" class="edge"><title>index&#45;&gt;iterator</title>
<path fill="none" stroke="black" d="M65.5356,-25.1646C76.656,-28.1671 89.7791,-31.7104 101.835,-34.9653"/>
<polygon fill="black" stroke="black" points="101.076,-38.3858 111.643,-37.6135 102.901,-31.6278 101.076,-38.3858"/>
</g>
</g>
</svg>
