<?xml version="1.0" encoding="UTF-8" standalone="no"?>
<!DOCTYPE svg PUBLIC "-//W3C//DTD SVG 1.1//EN"
 "http://www.w3.org/Graphics/SVG/1.1/DTD/svg11.dtd">
<!-- Generated by graphviz version 2.36.0 (20140111.2315)
 -->
<!-- Title: %3 Pages: 1 -->
<svg width="696pt" height="98pt"
 viewBox="0.00 0.00 696.00 98.00" xmlns="http://www.w3.org/2000/svg" xmlns:xlink="http://www.w3.org/1999/xlink">
<g id="graph0" class="graph" transform="scale(1 1) rotate(0) translate(4 94)">
<title>%3</title>
<!-- col0 -->
<g id="node1" class="node"><title>col0</title>
<ellipse fill="none" stroke="none" cx="35" cy="-18" rx="27" ry="18"/>
</g>
<!-- col1 -->
<g id="node2" class="node"><title>col1</title>
<ellipse fill="none" stroke="none" cx="133" cy="-18" rx="27" ry="18"/>
</g>
<!-- col0&#45;&gt;col1 -->
<g id="edge1" class="edge"><title>col0&#45;&gt;col1</title>
<path fill="none" stroke="none" d="M62.2324,-18C72.4975,-18 84.4478,-18 95.5271,-18"/>
<polygon fill="none" stroke="none" points="95.7993,-21.5001 105.799,-18 95.7993,-14.5001 95.7993,-21.5001"/>
</g>
<!-- col2 -->
<g id="node3" class="node"><title>col2</title>
<ellipse fill="none" stroke="none" cx="223" cy="-18" rx="27" ry="18"/>
</g>
<!-- col1&#45;&gt;col2 -->
<g id="edge2" class="edge"><title>col1&#45;&gt;col2</title>
<path fill="none" stroke="none" d="M160.403,-18C168.393,-18 177.311,-18 185.824,-18"/>
<polygon fill="none" stroke="none" points="185.919,-21.5001 195.919,-18 185.919,-14.5001 185.919,-21.5001"/>
</g>
<!-- col3 -->
<g id="node4" class="node"><title>col3</title>
<ellipse fill="none" stroke="none" cx="313" cy="-18" rx="27" ry="18"/>
</g>
<!-- col2&#45;&gt;col3 -->
<g id="edge3" class="edge"><title>col2&#45;&gt;col3</title>
<path fill="none" stroke="none" d="M250.403,-18C258.393,-18 267.311,-18 275.824,-18"/>
<polygon fill="none" stroke="none" points="275.919,-21.5001 285.919,-18 275.919,-14.5001 275.919,-21.5001"/>
</g>
<!-- col4 -->
<g id="node5" class="node"><title>col4</title>
<ellipse fill="none" stroke="none" cx="403" cy="-18" rx="27" ry="18"/>
</g>
<!-- col3&#45;&gt;col4 -->
<g id="edge4" class="edge"><title>col3&#45;&gt;col4</title>
<path fill="none" stroke="none" d="M340.403,-18C348.393,-18 357.311,-18 365.824,-18"/>
<polygon fill="none" stroke="none" points="365.919,-21.5001 375.919,-18 365.919,-14.5001 365.919,-21.5001"/>
</g>
<!-- col5 -->
<g id="node6" class="node"><title>col5</title>
<ellipse fill="none" stroke="none" cx="512" cy="-18" rx="27" ry="18"/>
</g>
<!-- col4&#45;&gt;col5 -->
<g id="edge5" class="edge"><title>col4&#45;&gt;col5</title>
<path fill="none" stroke="none" d="M430.175,-18C443.518,-18 459.96,-18 474.523,-18"/>
<polygon fill="none" stroke="none" points="474.724,-21.5001 484.724,-18 474.724,-14.5001 474.724,-21.5001"/>
</g>
<!-- col6 -->
<g id="node7" class="node"><title>col6</title>
<ellipse fill="none" stroke="none" cx="641" cy="-18" rx="27" ry="18"/>
</g>
<!-- col5&#45;&gt;col6 -->
<g id="edge6" class="edge"><title>col5&#45;&gt;col6</title>
<path fill="none" stroke="none" d="M539.007,-18C557.631,-18 582.959,-18 603.591,-18"/>
<polygon fill="none" stroke="none" points="603.592,-21.5001 613.592,-18 603.591,-14.5001 603.592,-21.5001"/>
</g>
<!-- row1start -->
<g id="node8" class="node"><title>row1start</title>
<ellipse fill="none" stroke="black" cx="35" cy="-72" rx="34.8024" ry="18"/>
<text text-anchor="middle" x="35" y="-67.8" font-family="Times,serif" font-size="14.00">feather</text>
</g>
<!-- Sublime -->
<g id="node11" class="node"><title>Sublime</title>
<polygon fill="none" stroke="black" points="160,-90 106,-90 106,-54 160,-54 160,-90"/>
<text text-anchor="middle" x="133" y="-67.8" font-family="Times,serif" font-size="14.00">VSC</text>
</g>
<!-- row1start&#45;&gt;Sublime -->
<g id="edge7" class="edge"><title>row1start&#45;&gt;Sublime</title>
<path fill="none" stroke="black" d="M69.846,-72C81.7221,-72 94.8678,-72 105.999,-72"/>
</g>
<!-- row1end -->
<g id="node9" class="node"><title>row1end</title>
<ellipse fill="none" stroke="black" cx="641" cy="-72" rx="46.8889" ry="18"/>
<text text-anchor="middle" x="641" y="-67.8" font-family="Times,serif" font-size="14.00">black hole</text>
</g>
<!-- IntelliJ -->
<g id="node10" class="node"><title>IntelliJ</title>
<polygon fill="none" stroke="black" points="557.783,-90 466.217,-90 466.217,-54 557.783,-54 557.783,-90"/>
<text text-anchor="middle" x="512" y="-67.8" font-family="Times,serif" font-size="14.00">Visual Studio</text>
</g>
<!-- IntelliJ&#45;&gt;row1end -->
<g id="edge9" class="edge"><title>IntelliJ&#45;&gt;row1end</title>
<path fill="none" stroke="black" d="M558.133,-72C569.826,-72 582.427,-72 594.156,-72"/>
</g>
<!-- Sublime&#45;&gt;IntelliJ -->
<g id="edge8" class="edge"><title>Sublime&#45;&gt;IntelliJ</title>
<path fill="none" stroke="black" d="M160.211,-72C223.748,-72 386.586,-72 466.041,-72"/>
</g>
</g>
</svg>
