<?xml version="1.0" encoding="UTF-8" standalone="no"?>
<!DOCTYPE svg PUBLIC "-//W3C//DTD SVG 1.1//EN"
 "http://www.w3.org/Graphics/SVG/1.1/DTD/svg11.dtd">
<!-- Generated by graphviz version 2.36.0 (20140111.2315)
 -->
<!-- Title: %3 Pages: 1 -->
<svg width="290pt" height="98pt"
 viewBox="0.00 0.00 290.00 98.00" xmlns="http://www.w3.org/2000/svg" xmlns:xlink="http://www.w3.org/1999/xlink">
<g id="graph0" class="graph" transform="scale(1 1) rotate(0) translate(4 94)">
<title>%3</title>
<!-- recipe -->
<g id="node1" class="node"><title>recipe</title>
<ellipse fill="none" stroke="black" cx="32" cy="-72" rx="31.9132" ry="18"/>
<text text-anchor="middle" x="32" y="-67.8" font-family="Times,serif" font-size="14.00">recipe</text>
</g>
<!-- costOfRecipe -->
<g id="node2" class="node"><title>costOfRecipe</title>
<polygon fill="none" stroke="black" points="192.194,-63 99.8064,-63 99.8064,-27 192.194,-27 192.194,-63"/>
<text text-anchor="middle" x="146" y="-40.8" font-family="Times,serif" font-size="14.00">costOfRecipe</text>
</g>
<!-- recipe&#45;&gt;costOfRecipe -->
<g id="edge1" class="edge"><title>recipe&#45;&gt;costOfRecipe</title>
<path fill="none" stroke="black" d="M61.5521,-65.1169C70.2043,-63.0311 80.0178,-60.6654 89.7988,-58.3074"/>
<polygon fill="black" stroke="black" points="90.6236,-61.709 99.5248,-55.9628 88.983,-54.9039 90.6236,-61.709"/>
</g>
<!-- cost -->
<g id="node3" class="node"><title>cost</title>
<ellipse fill="none" stroke="black" cx="255" cy="-45" rx="27" ry="18"/>
<text text-anchor="middle" x="255" y="-40.8" font-family="Times,serif" font-size="14.00">cost</text>
</g>
<!-- costOfRecipe&#45;&gt;cost -->
<g id="edge2" class="edge"><title>costOfRecipe&#45;&gt;cost</title>
<path fill="none" stroke="black" d="M192.378,-45C200.774,-45 209.443,-45 217.532,-45"/>
<polygon fill="black" stroke="black" points="217.761,-48.5001 227.761,-45 217.761,-41.5001 217.761,-48.5001"/>
</g>
<!-- shop -->
<g id="node4" class="node"><title>shop</title>
<ellipse fill="none" stroke="black" cx="32" cy="-18" rx="27" ry="18"/>
<text text-anchor="middle" x="32" y="-13.8" font-family="Times,serif" font-size="14.00">shop</text>
</g>
<!-- shop&#45;&gt;costOfRecipe -->
<g id="edge3" class="edge"><title>shop&#45;&gt;costOfRecipe</title>
<path fill="none" stroke="black" d="M57.5789,-23.9253C67.1412,-26.2305 78.5107,-28.9713 89.8347,-31.7012"/>
<polygon fill="black" stroke="black" points="89.186,-35.145 99.7278,-34.0862 90.8266,-28.34 89.186,-35.145"/>
</g>
</g>
</svg>
