<?xml version="1.0" encoding="UTF-8" standalone="no"?>
<!DOCTYPE svg PUBLIC "-//W3C//DTD SVG 1.1//EN"
 "http://www.w3.org/Graphics/SVG/1.1/DTD/svg11.dtd">
<!-- Generated by graphviz version 2.36.0 (20140111.2315)
 -->
<!-- Title: %3 Pages: 1 -->
<svg width="476pt" height="206pt"
 viewBox="0.00 0.00 476.00 206.00" xmlns="http://www.w3.org/2000/svg" xmlns:xlink="http://www.w3.org/1999/xlink">
<g id="graph0" class="graph" transform="scale(1 1) rotate(0) translate(4 202)">
<title>%3</title>
<g id="clust2" class="cluster"><title>cluster_reducer</title>
<polygon fill="none" stroke="black" points="82,-8 82,-190 354,-190 354,-8 82,-8"/>
<text text-anchor="middle" x="218" y="-174.8" font-family="Times,serif" font-size="14.00">reducer</text>
</g>
<!-- list -->
<g id="node1" class="node"><title>list</title>
<ellipse fill="none" stroke="black" cx="27" cy="-88" rx="27" ry="18"/>
<text text-anchor="middle" x="27" y="-83.8" font-family="Times,serif" font-size="14.00">list</text>
</g>
<!-- item1 -->
<g id="node6" class="node"><title>item1</title>
<ellipse fill="none" stroke="black" cx="120" cy="-142" rx="30.4949" ry="18"/>
<text text-anchor="middle" x="120" y="-137.8" font-family="Times,serif" font-size="14.00">item1</text>
</g>
<!-- list&#45;&gt;item1 -->
<g id="edge12" class="edge"><title>list&#45;&gt;item1</title>
<path fill="none" stroke="black" d="M47.7456,-99.7172C59.8077,-106.875 75.4703,-116.169 89.038,-124.22"/>
<polygon fill="black" stroke="black" points="87.6404,-127.461 98.0264,-129.554 91.2126,-121.441 87.6404,-127.461"/>
</g>
<!-- item2 -->
<g id="node8" class="node"><title>item2</title>
<ellipse fill="none" stroke="black" cx="120" cy="-88" rx="30.4949" ry="18"/>
<text text-anchor="middle" x="120" y="-83.8" font-family="Times,serif" font-size="14.00">item2</text>
</g>
<!-- list&#45;&gt;item2 -->
<g id="edge13" class="edge"><title>list&#45;&gt;item2</title>
<path fill="none" stroke="black" d="M54.321,-88C62.1578,-88 70.9238,-88 79.4107,-88"/>
<polygon fill="black" stroke="black" points="79.5433,-91.5001 89.5433,-88 79.5432,-84.5001 79.5433,-91.5001"/>
</g>
<!-- item3 -->
<g id="node10" class="node"><title>item3</title>
<ellipse fill="none" stroke="black" cx="120" cy="-34" rx="30.4949" ry="18"/>
<text text-anchor="middle" x="120" y="-29.8" font-family="Times,serif" font-size="14.00">item3</text>
</g>
<!-- list&#45;&gt;item3 -->
<g id="edge14" class="edge"><title>list&#45;&gt;item3</title>
<path fill="none" stroke="black" d="M47.7456,-76.2828C59.8077,-69.1251 75.4703,-59.8308 89.038,-51.7797"/>
<polygon fill="black" stroke="black" points="91.2126,-54.5591 98.0264,-46.4459 87.6404,-48.5392 91.2126,-54.5591"/>
</g>
<!-- seed -->
<g id="node2" class="node"><title>seed</title>
<ellipse fill="none" stroke="black" cx="27" cy="-165" rx="27" ry="18"/>
<text text-anchor="middle" x="27" y="-160.8" font-family="Times,serif" font-size="14.00">seed</text>
</g>
<!-- seed&#45;&gt;list -->
<g id="edge10" class="edge"><title>seed&#45;&gt;list</title>
<path fill="none" stroke="none" d="M27,-146.577C27,-136.445 27,-126.312 27,-116.179"/>
<polygon fill="none" stroke="none" points="30.5001,-116.047 27,-106.047 23.5001,-116.047 30.5001,-116.047"/>
</g>
<!-- iterator1 -->
<g id="node3" class="node"><title>iterator1</title>
<polygon fill="none" stroke="black" points="242.422,-160 185.578,-160 185.578,-124 242.422,-124 242.422,-160"/>
<text text-anchor="middle" x="214" y="-137.8" font-family="Times,serif" font-size="14.00">iterator</text>
</g>
<!-- seed&#45;&gt;iterator1 -->
<g id="edge11" class="edge"><title>seed&#45;&gt;iterator1</title>
<path fill="none" stroke="black" d="M53.5275,-169.27C78.4156,-172.631 117.201,-175.732 150,-169 158.808,-167.192 167.905,-164.099 176.353,-160.637"/>
<polygon fill="black" stroke="black" points="177.798,-163.826 185.566,-156.621 175,-157.409 177.798,-163.826"/>
</g>
<!-- seed&#45;&gt;item1 -->
<g id="edge9" class="edge"><title>seed&#45;&gt;item1</title>
<path fill="none" stroke="none" d="M52.3863,-158.836C61.5469,-156.521 72.1746,-153.835 82.2143,-151.297"/>
<polygon fill="none" stroke="none" points="83.1444,-154.673 91.9818,-148.829 81.429,-147.886 83.1444,-154.673"/>
</g>
<!-- value1 -->
<g id="node7" class="node"><title>value1</title>
<ellipse fill="none" stroke="black" cx="312" cy="-142" rx="33.8596" ry="18"/>
<text text-anchor="middle" x="312" y="-137.8" font-family="Times,serif" font-size="14.00">value1</text>
</g>
<!-- iterator1&#45;&gt;value1 -->
<g id="edge2" class="edge"><title>iterator1&#45;&gt;value1</title>
<path fill="none" stroke="black" d="M242.253,-142C250.301,-142 259.313,-142 268.095,-142"/>
<polygon fill="black" stroke="black" points="268.227,-145.5 278.227,-142 268.227,-138.5 268.227,-145.5"/>
</g>
<!-- iterator2 -->
<g id="node4" class="node"><title>iterator2</title>
<polygon fill="none" stroke="black" points="242.422,-106 185.578,-106 185.578,-70 242.422,-70 242.422,-106"/>
<text text-anchor="middle" x="214" y="-83.8" font-family="Times,serif" font-size="14.00">iterator</text>
</g>
<!-- value2 -->
<g id="node9" class="node"><title>value2</title>
<ellipse fill="none" stroke="black" cx="312" cy="-88" rx="33.8596" ry="18"/>
<text text-anchor="middle" x="312" y="-83.8" font-family="Times,serif" font-size="14.00">value2</text>
</g>
<!-- iterator2&#45;&gt;value2 -->
<g id="edge4" class="edge"><title>iterator2&#45;&gt;value2</title>
<path fill="none" stroke="black" d="M242.253,-88C250.301,-88 259.313,-88 268.095,-88"/>
<polygon fill="black" stroke="black" points="268.227,-91.5001 278.227,-88 268.227,-84.5001 268.227,-91.5001"/>
</g>
<!-- iterator3 -->
<g id="node5" class="node"><title>iterator3</title>
<polygon fill="none" stroke="black" points="242.422,-52 185.578,-52 185.578,-16 242.422,-16 242.422,-52"/>
<text text-anchor="middle" x="214" y="-29.8" font-family="Times,serif" font-size="14.00">iterator</text>
</g>
<!-- value3 -->
<g id="node11" class="node"><title>value3</title>
<ellipse fill="none" stroke="black" cx="312" cy="-34" rx="33.8596" ry="18"/>
<text text-anchor="middle" x="312" y="-29.8" font-family="Times,serif" font-size="14.00">value3</text>
</g>
<!-- iterator3&#45;&gt;value3 -->
<g id="edge6" class="edge"><title>iterator3&#45;&gt;value3</title>
<path fill="none" stroke="black" d="M242.253,-34C250.301,-34 259.313,-34 268.095,-34"/>
<polygon fill="black" stroke="black" points="268.227,-37.5001 278.227,-34 268.227,-30.5001 268.227,-37.5001"/>
</g>
<!-- item1&#45;&gt;iterator1 -->
<g id="edge1" class="edge"><title>item1&#45;&gt;iterator1</title>
<path fill="none" stroke="black" d="M150.362,-142C158.275,-142 166.947,-142 175.248,-142"/>
<polygon fill="black" stroke="black" points="175.48,-145.5 185.48,-142 175.48,-138.5 175.48,-145.5"/>
</g>
<!-- value1&#45;&gt;iterator2 -->
<g id="edge7" class="edge"><title>value1&#45;&gt;iterator2:w</title>
<path fill="none" stroke="black" d="M285.162,-130.974C272.362,-125.845 256.564,-120.008 242,-116 217.624,-109.292 202.762,-124.927 186,-106 183.925,-103.657 182.096,-100.398 181.115,-97.2958"/>
<polygon fill="black" stroke="black" points="184.373,-98.5763 185,-88 177.914,-95.8769 184.373,-98.5763"/>
</g>
<!-- item2&#45;&gt;iterator2 -->
<g id="edge3" class="edge"><title>item2&#45;&gt;iterator2</title>
<path fill="none" stroke="black" d="M150.362,-88C158.275,-88 166.947,-88 175.248,-88"/>
<polygon fill="black" stroke="black" points="175.48,-91.5001 185.48,-88 175.48,-84.5001 175.48,-91.5001"/>
</g>
<!-- value2&#45;&gt;iterator3 -->
<g id="edge8" class="edge"><title>value2&#45;&gt;iterator3:w</title>
<path fill="none" stroke="black" d="M285.162,-76.9735C272.362,-71.845 256.564,-66.0078 242,-62 217.624,-55.2921 202.762,-70.9275 186,-52 183.925,-49.6569 182.096,-46.3978 181.115,-43.2958"/>
<polygon fill="black" stroke="black" points="184.373,-44.5763 185,-34 177.914,-41.8769 184.373,-44.5763"/>
</g>
<!-- item3&#45;&gt;iterator3 -->
<g id="edge5" class="edge"><title>item3&#45;&gt;iterator3</title>
<path fill="none" stroke="black" d="M150.362,-34C158.275,-34 166.947,-34 175.248,-34"/>
<polygon fill="black" stroke="black" points="175.48,-37.5001 185.48,-34 175.48,-30.5001 175.48,-37.5001"/>
</g>
<!-- returnVal -->
<g id="node12" class="node"><title>returnVal</title>
<ellipse fill="none" stroke="black" cx="425" cy="-34" rx="43.0215" ry="18"/>
<text text-anchor="middle" x="425" y="-29.8" font-family="Times,serif" font-size="14.00">returnVal</text>
</g>
<!-- value3&#45;&gt;returnVal -->
<g id="edge15" class="edge"><title>value3&#45;&gt;returnVal</title>
<path fill="none" stroke="black" d="M345.703,-34C353.793,-34 362.665,-34 371.438,-34"/>
<polygon fill="black" stroke="black" points="371.64,-37.5001 381.64,-34 371.64,-30.5001 371.64,-37.5001"/>
</g>
</g>
</svg>
