<?xml version="1.0" encoding="UTF-8" standalone="no"?>
<!DOCTYPE svg PUBLIC "-//W3C//DTD SVG 1.1//EN"
 "http://www.w3.org/Graphics/SVG/1.1/DTD/svg11.dtd">
<!-- Generated by graphviz version 2.36.0 (20140111.2315)
 -->
<!-- Title: %3 Pages: 1 -->
<svg width="266pt" height="152pt"
 viewBox="0.00 0.00 266.00 152.00" xmlns="http://www.w3.org/2000/svg" xmlns:xlink="http://www.w3.org/1999/xlink">
<g id="graph0" class="graph" transform="scale(1 1) rotate(0) translate(4 148)">
<title>%3</title>
<!-- list -->
<g id="node1" class="node"><title>list</title>
<ellipse fill="none" stroke="black" cx="36" cy="-126" rx="27" ry="18"/>
<text text-anchor="middle" x="36" y="-121.8" font-family="Times,serif" font-size="14.00">list</text>
</g>
<!-- reduce -->
<g id="node2" class="node"><title>reduce</title>
<polygon fill="none" stroke="black" points="162,-90 108,-90 108,-54 162,-54 162,-90"/>
<text text-anchor="middle" x="135" y="-67.8" font-family="Times,serif" font-size="14.00">reduce</text>
</g>
<!-- list&#45;&gt;reduce -->
<g id="edge1" class="edge"><title>list&#45;&gt;reduce</title>
<path fill="none" stroke="black" d="M57.5712,-114.548C69.6147,-107.843 85.1437,-99.1984 99.0549,-91.454"/>
<polygon fill="black" stroke="black" points="100.875,-94.4465 107.91,-86.5243 97.4703,-88.3303 100.875,-94.4465"/>
</g>
<!-- value -->
<g id="node5" class="node"><title>value</title>
<ellipse fill="none" stroke="black" cx="228" cy="-72" rx="29.0172" ry="18"/>
<text text-anchor="middle" x="228" y="-67.8" font-family="Times,serif" font-size="14.00">value</text>
</g>
<!-- reduce&#45;&gt;value -->
<g id="edge4" class="edge"><title>reduce&#45;&gt;value</title>
<path fill="none" stroke="black" d="M162.321,-72C170.47,-72 179.624,-72 188.425,-72"/>
<polygon fill="black" stroke="black" points="188.511,-75.5001 198.511,-72 188.511,-68.5001 188.511,-75.5001"/>
</g>
<!-- seed -->
<g id="node3" class="node"><title>seed</title>
<ellipse fill="none" stroke="black" cx="36" cy="-72" rx="27" ry="18"/>
<text text-anchor="middle" x="36" y="-67.8" font-family="Times,serif" font-size="14.00">seed</text>
</g>
<!-- seed&#45;&gt;reduce -->
<g id="edge2" class="edge"><title>seed&#45;&gt;reduce</title>
<path fill="none" stroke="black" d="M63.2496,-72C73.8171,-72 86.1838,-72 97.5961,-72"/>
<polygon fill="black" stroke="black" points="97.7295,-75.5001 107.729,-72 97.7294,-68.5001 97.7295,-75.5001"/>
</g>
<!-- iterator -->
<g id="node4" class="node"><title>iterator</title>
<ellipse fill="none" stroke="black" cx="36" cy="-18" rx="35.78" ry="18"/>
<text text-anchor="middle" x="36" y="-13.8" font-family="Times,serif" font-size="14.00">iterator</text>
</g>
<!-- iterator&#45;&gt;reduce -->
<g id="edge3" class="edge"><title>iterator&#45;&gt;reduce</title>
<path fill="none" stroke="black" d="M60.9775,-31.3483C72.4444,-37.7319 86.393,-45.4971 99.0146,-52.5236"/>
<polygon fill="black" stroke="black" points="97.4763,-55.673 107.916,-57.4791 100.881,-49.5569 97.4763,-55.673"/>
</g>
</g>
</svg>
