<?xml version="1.0" encoding="UTF-8" standalone="no"?>
<!DOCTYPE svg PUBLIC "-//W3C//DTD SVG 1.1//EN"
 "http://www.w3.org/Graphics/SVG/1.1/DTD/svg11.dtd">
<!-- Generated by graphviz version 2.36.0 (20140111.2315)
 -->
<!-- Title: %3 Pages: 1 -->
<svg width="338pt" height="98pt"
 viewBox="0.00 0.00 338.00 98.00" xmlns="http://www.w3.org/2000/svg" xmlns:xlink="http://www.w3.org/1999/xlink">
<g id="graph0" class="graph" transform="scale(1 1) rotate(0) translate(4 94)">
<title>%3</title>
<!-- element -->
<g id="node1" class="node"><title>element</title>
<ellipse fill="none" stroke="black" cx="56" cy="-72" rx="38.1937" ry="18"/>
<text text-anchor="middle" x="56" y="-67.8" font-family="Times,serif" font-size="14.00">element</text>
</g>
<!-- iterator -->
<g id="node2" class="node"><title>iterator</title>
<polygon fill="none" stroke="black" points="204.422,-63 147.578,-63 147.578,-27 204.422,-27 204.422,-63"/>
<text text-anchor="middle" x="176" y="-40.8" font-family="Times,serif" font-size="14.00">iterator</text>
</g>
<!-- element&#45;&gt;iterator -->
<g id="edge1" class="edge"><title>element&#45;&gt;iterator</title>
<path fill="none" stroke="black" d="M90.4984,-64.3351C105.224,-60.9656 122.575,-56.9955 137.711,-53.5323"/>
<polygon fill="black" stroke="black" points="138.808,-56.8717 147.776,-51.2293 137.247,-50.048 138.808,-56.8717"/>
</g>
<!-- newValue -->
<g id="node4" class="node"><title>newValue</title>
<ellipse fill="none" stroke="black" cx="285" cy="-45" rx="44.9509" ry="18"/>
<text text-anchor="middle" x="285" y="-40.8" font-family="Times,serif" font-size="14.00">newValue</text>
</g>
<!-- iterator&#45;&gt;newValue -->
<g id="edge3" class="edge"><title>iterator&#45;&gt;newValue</title>
<path fill="none" stroke="black" d="M204.277,-45C212.021,-45 220.738,-45 229.491,-45"/>
<polygon fill="black" stroke="black" points="229.727,-48.5001 239.727,-45 229.727,-41.5001 229.727,-48.5001"/>
</g>
<!-- currentValue -->
<g id="node3" class="node"><title>currentValue</title>
<ellipse fill="none" stroke="black" cx="56" cy="-18" rx="55.0664" ry="18"/>
<text text-anchor="middle" x="56" y="-13.8" font-family="Times,serif" font-size="14.00">currentValue</text>
</g>
<!-- currentValue&#45;&gt;iterator -->
<g id="edge2" class="edge"><title>currentValue&#45;&gt;iterator</title>
<path fill="none" stroke="black" d="M101.611,-28.2075C113.625,-30.9565 126.486,-33.8994 138.033,-36.5414"/>
<polygon fill="black" stroke="black" points="137.258,-39.9546 147.787,-38.7733 138.82,-33.1309 137.258,-39.9546"/>
</g>
</g>
</svg>
