<?xml version="1.0" encoding="UTF-8" standalone="no"?>
<!DOCTYPE svg PUBLIC "-//W3C//DTD SVG 1.1//EN"
 "http://www.w3.org/Graphics/SVG/1.1/DTD/svg11.dtd">
<!-- Generated by graphviz version 2.36.0 (20140111.2315)
 -->
<!-- Title: %3 Pages: 1 -->
<svg width="384pt" height="44pt"
 viewBox="0.00 0.00 384.00 44.00" xmlns="http://www.w3.org/2000/svg" xmlns:xlink="http://www.w3.org/1999/xlink">
<g id="graph0" class="graph" transform="scale(1 1) rotate(0) translate(4 40)">
<title>%3</title>
<!-- TypeScript -->
<g id="node1" class="node"><title>TypeScript</title>
<ellipse fill="none" stroke="black" cx="49" cy="-18" rx="48.569" ry="18"/>
<text text-anchor="middle" x="49" y="-13.8" font-family="Times,serif" font-size="14.00">TypeScript</text>
</g>
<!-- compiler -->
<g id="node2" class="node"><title>compiler</title>
<polygon fill="none" stroke="black" points="199.759,-36 134.241,-36 134.241,-0 199.759,-0 199.759,-36"/>
<text text-anchor="middle" x="167" y="-13.8" font-family="Times,serif" font-size="14.00">compiler</text>
</g>
<!-- TypeScript&#45;&gt;compiler -->
<g id="edge1" class="edge"><title>TypeScript&#45;&gt;compiler</title>
<path fill="none" stroke="black" d="M97.8514,-18C106.548,-18 115.558,-18 124.068,-18"/>
<polygon fill="black" stroke="black" points="124.144,-21.5001 134.144,-18 124.144,-14.5001 124.144,-21.5001"/>
</g>
<!-- JavaScript -->
<g id="node3" class="node"><title>JavaScript</title>
<ellipse fill="none" stroke="black" cx="306" cy="-18" rx="69.5752" ry="18"/>
<text text-anchor="middle" x="306" y="-13.8" font-family="Times,serif" font-size="14.00">JavaScript (ES5)</text>
</g>
<!-- compiler&#45;&gt;JavaScript -->
<g id="edge2" class="edge"><title>compiler&#45;&gt;JavaScript</title>
<path fill="none" stroke="black" d="M199.775,-18C207.786,-18 216.748,-18 225.971,-18"/>
<polygon fill="black" stroke="black" points="226.048,-21.5001 236.048,-18 226.048,-14.5001 226.048,-21.5001"/>
</g>
</g>
</svg>
